# xmcd
#
# Track frame offsets:
#	150
#	14047
#	31472
#	48480
#	64580
#	81462
#	99995
#	112980
#	130682
#	147505
#	162675
#	176995
#
# Disc length: 2620 seconds
# Revision: 3
# Processed by: cddbd v1.5.2PL0 Copyright (c) Steve Scherf et al.
# Submitted via: dBpowerAMP V12.0
#
DISCID=ad0a3a0c
DTITLE=Preston Shannon - Break The Ice
DYEAR=1994
DGENRE=Blues
TTITLE0=Trouble
TTITLE1=Break The Ice
TTITLE2=You're The One
TTITLE3=Have Your Woman Ever Loved You so Good
TTITLE4=I Got Everything I Need
TTITLE5=Beale Street Boogaloo
TTITLE6=Put a Dollar in Your Pocket
TTITLE7=Forty Days And Forty Nights
TTITLE8=Lookin' For a Love
TTITLE9=I Got Somebody
TTITLE10=Crosscut Saw
TTITLE11=You're Gonna Miss me When I'm Gone
EXTD=
EXTT0=
EXTT1=
EXTT2=
EXTT3=
EXTT4=
EXTT5=
EXTT6=
EXTT7=
EXTT8=
EXTT9=
EXTT10=
EXTT11=
PLAYORDER=
